<svg width="440" height="367" viewBox="0 0 440 367" fill="none" xmlns="http://www.w3.org/2000/svg">
<ellipse cx="220" cy="183.5" rx="189" ry="183.5" fill="url(#paint0_linear_18_2)"/>
<rect x="234" y="102" width="192" height="162" fill="#D9D9D9" stroke="black" stroke-width="28"/>
<rect x="14" y="102" width="192" height="162" fill="#D9D9D9" stroke="black" stroke-width="28"/>
<path d="M141 121.5C165.409 121.5 185.5 143.931 185.5 172C185.5 200.069 165.409 222.5 141 222.5C116.591 222.5 96.5 200.069 96.5 172C96.5 143.931 116.591 121.5 141 121.5Z" fill="url(#paint1_linear_18_2)" stroke="url(#paint2_linear_18_2)" stroke-width="3"/>
<path d="M299 121.5C323.409 121.5 343.5 143.931 343.5 172C343.5 200.069 323.409 222.5 299 222.5C274.591 222.5 254.5 200.069 254.5 172C254.5 143.931 274.591 121.5 299 121.5Z" fill="url(#paint3_linear_18_2)" stroke="url(#paint4_linear_18_2)" stroke-width="3"/>
<path d="M181 314C181 314 216.5 362.5 259.5 314" stroke="black" stroke-width="5"/>
<defs>
<linearGradient id="paint0_linear_18_2" x1="220" y1="0" x2="220" y2="367" gradientUnits="userSpaceOnUse">
<stop offset="0.163488" stop-color="#9A9A9A"/>
<stop offset="1" stop-color="#343434"/>
</linearGradient>
<linearGradient id="paint1_linear_18_2" x1="141" y1="133" x2="141" y2="224" gradientUnits="userSpaceOnUse">
<stop stop-color="#666666"/>
<stop offset="1"/>
</linearGradient>
<linearGradient id="paint2_linear_18_2" x1="141" y1="120" x2="141" y2="224" gradientUnits="userSpaceOnUse">
<stop offset="0.00961538" stop-color="#666666"/>
<stop offset="0.850962" stop-color="#3A3A3A"/>
</linearGradient>
<linearGradient id="paint3_linear_18_2" x1="299" y1="133" x2="299" y2="224" gradientUnits="userSpaceOnUse">
<stop stop-color="#666666"/>
<stop offset="1"/>
</linearGradient>
<linearGradient id="paint4_linear_18_2" x1="299" y1="120" x2="299" y2="224" gradientUnits="userSpaceOnUse">
<stop offset="0.00961538" stop-color="#666666"/>
<stop offset="0.850962" stop-color="#3A3A3A"/>
</linearGradient>
</defs>
</svg>
